<mxfile host="app.diagrams.net" modified="2023-09-21T12:17:43.600Z" agent="Mozilla/5.0 (Windows NT 10.0; Win64; x64) AppleWebKit/537.36 (KHTML, like Gecko) Chrome/116.0.0.0 Safari/537.36" version="21.3.6" etag="JTS3AWofq2_VX7dxu6M4" type="github">
  <diagram name="PÃ¡gina-1" id="FpoQCyFT8pI4sY8Leg7U">
    <mxGraphModel>
      <root>
        <mxCell id="0" />
        <mxCell id="1" parent="0" />
      </root>
    </mxGraphModel>
  </diagram>
</mxfile>
